<svg xmlns="http://www.w3.org/2000/svg" viewBox="0 0 15.99 16"><g id="レイヤー_2" data-name="レイヤー 2"><g id="レイヤー_1-2" data-name="レイヤー 1"><path id="instagram" d="M8,1.44c2.14,0,2.39,0,3.23.05a4.33,4.33,0,0,1,1.49.27,2.67,2.67,0,0,1,1.52,1.52,4.32,4.32,0,0,1,.27,1.48c0,.85.05,1.1.05,3.24s0,2.39-.05,3.23a4.26,4.26,0,0,1-.27,1.48,2.49,2.49,0,0,1-.6.92,2.57,2.57,0,0,1-.92.6,4.51,4.51,0,0,1-1.48.28c-.85,0-1.1,0-3.24,0s-2.39,0-3.23,0a4.44,4.44,0,0,1-1.48-.28,2.37,2.37,0,0,1-.92-.6,2.41,2.41,0,0,1-.6-.91,4.58,4.58,0,0,1-.28-1.49c0-.84,0-1.1,0-3.23s0-2.39,0-3.23a4.52,4.52,0,0,1,.28-1.49,2.55,2.55,0,0,1,.59-.92,2.66,2.66,0,0,1,.92-.6,4.39,4.39,0,0,1,1.49-.27c.84,0,1.09-.05,3.23-.05ZM8,0C5.83,0,5.56,0,4.7.05A5.85,5.85,0,0,0,2.76.42a4.08,4.08,0,0,0-1.42.92A4.17,4.17,0,0,0,.42,2.76,5.61,5.61,0,0,0,.05,4.7C0,5.56,0,5.83,0,8s0,2.45.05,3.3a5.61,5.61,0,0,0,.37,1.94,4,4,0,0,0,.92,1.42,3.94,3.94,0,0,0,1.42.92A5.61,5.61,0,0,0,4.7,16C5.55,16,5.83,16,8,16s2.44,0,3.3-.05a5.61,5.61,0,0,0,1.94-.37,3.9,3.9,0,0,0,1.41-.92,3.81,3.81,0,0,0,.92-1.42A5.82,5.82,0,0,0,16,11.3c0-.85,0-1.12,0-3.3s0-2.44,0-3.29a5.77,5.77,0,0,0-.38-1.94,3.63,3.63,0,0,0-.91-1.43A4,4,0,0,0,13.24.42,6.12,6.12,0,0,0,11.3.05C10.45,0,10.17,0,8,0ZM8,3.89A4.11,4.11,0,1,0,12.11,8,4.11,4.11,0,0,0,8,3.89Zm0,6.78A2.67,2.67,0,1,1,10.67,8,2.67,2.67,0,0,1,8,10.67Zm4.27-7.9a1,1,0,1,0,1,1A1,1,0,0,0,12.27,2.77Z"/></g></g></svg>