<svg xmlns="http://www.w3.org/2000/svg" viewBox="0 0 16 14.02"><g id="レイヤー_2" data-name="レイヤー 2"><g id="レイヤー_1-2" data-name="レイヤー 1"><path id="share" d="M11.46,9.32a1.54,1.54,0,0,0-.17.19L5.74,7.25a1.93,1.93,0,0,0,0-.24,1.69,1.69,0,0,0,0-.23l5.55-2.26.17.18a2.59,2.59,0,0,0,3.76,0,2.82,2.82,0,0,0,0-3.89,2.59,2.59,0,0,0-3.76,0,2.78,2.78,0,0,0-.78,2.1L5.13,5.17A2.84,2.84,0,0,0,2.87,4,2.92,2.92,0,0,0,0,7a2.93,2.93,0,0,0,2.87,3A2.84,2.84,0,0,0,5.13,8.86l5.55,2.26a2.81,2.81,0,0,0,.78,2.1,2.6,2.6,0,0,0,3.76,0,2.83,2.83,0,0,0,0-3.9A2.59,2.59,0,0,0,11.46,9.32Z"/></g></g></svg>