<svg xmlns="http://www.w3.org/2000/svg" viewBox="0 0 32 26"><g id="レイヤー_2" data-name="レイヤー 2"><g id="レイヤー_1-2" data-name="レイヤー 1"><path id="twitter" d="M32,3.07a13.39,13.39,0,0,1-3.26,3.41v.85A18.69,18.69,0,0,1,28,12.59a18.63,18.63,0,0,1-2.33,5.06,19.46,19.46,0,0,1-3.76,4.28,17.07,17.07,0,0,1-5.24,3A19.14,19.14,0,0,1,10.07,26,18.22,18.22,0,0,1,0,23.33a10.23,10.23,0,0,0,1.56.11A12.83,12.83,0,0,0,9.7,20.33,6.28,6.28,0,0,1,5.91,19a6.42,6.42,0,0,1-2.32-3.24,7.47,7.47,0,0,0,1.22.11,7.3,7.3,0,0,0,1.75-.22A6.35,6.35,0,0,1,2.8,13.41,6.39,6.39,0,0,1,1.3,9.22V9.15a6.24,6.24,0,0,0,3,.81A6.21,6.21,0,0,1,1.33,4.52a6.39,6.39,0,0,1,.89-3.19,18.46,18.46,0,0,0,6,4.76,18.71,18.71,0,0,0,7.54,2,6.58,6.58,0,0,1-.15-1.51A6.33,6.33,0,0,1,17.5,1.93,6.27,6.27,0,0,1,22.15,0,6.45,6.45,0,0,1,27,2.07,13.21,13.21,0,0,0,31.11.48a6.22,6.22,0,0,1-2.89,3.63A13.35,13.35,0,0,0,32,3.07Z"/></g></g></svg>