<svg style="visibility: hidden; position: absolute; top: 0; left: 0;" aria-hidden="true" xmlns="http://www.w3.org/2000/svg" xmlns:xlink="http://www.w3.org/1999/xlink"><symbol viewBox="0 0 8.89 16" id="i-facebook" xmlns="http://www.w3.org/2000/svg"><path d="M8.89 2.78H6.35c-.3 0-.64.4-.64.92v1.84h3.18l-.48 2.61h-2.7V16h-3V8.15H0V5.54h2.72V4a3.77 3.77 0 0 1 3.63-4h2.54Z"/></symbol><symbol viewBox="0 0 15.99 16" id="i-instagram" xmlns="http://www.w3.org/2000/svg"><path d="M8 1.44c2.14 0 2.39 0 3.23.05a4.33 4.33 0 0 1 1.49.27 2.67 2.67 0 0 1 1.52 1.52 4.32 4.32 0 0 1 .27 1.48c0 .85.05 1.1.05 3.24s0 2.39-.05 3.23a4.26 4.26 0 0 1-.27 1.48 2.49 2.49 0 0 1-.6.92 2.57 2.57 0 0 1-.92.6 4.51 4.51 0 0 1-1.48.28H4.77a4.44 4.44 0 0 1-1.48-.28 2.37 2.37 0 0 1-.92-.6 2.41 2.41 0 0 1-.6-.91 4.58 4.58 0 0 1-.28-1.49V4.77a4.52 4.52 0 0 1 .28-1.49 2.55 2.55 0 0 1 .59-.92 2.66 2.66 0 0 1 .92-.6 4.39 4.39 0 0 1 1.49-.27c.84 0 1.09-.05 3.23-.05ZM8 0C5.83 0 5.56 0 4.7.05a5.85 5.85 0 0 0-1.94.37 4.08 4.08 0 0 0-1.42.92 4.17 4.17 0 0 0-.92 1.42A5.61 5.61 0 0 0 .05 4.7C0 5.56 0 5.83 0 8s0 2.45.05 3.3a5.61 5.61 0 0 0 .37 1.94 4 4 0 0 0 .92 1.42 3.94 3.94 0 0 0 1.42.92A5.61 5.61 0 0 0 4.7 16H8c2.17 0 2.44 0 3.3-.05a5.61 5.61 0 0 0 1.94-.37 3.9 3.9 0 0 0 1.41-.92 3.81 3.81 0 0 0 .92-1.42A5.82 5.82 0 0 0 16 11.3V4.71a5.77 5.77 0 0 0-.38-1.94 3.63 3.63 0 0 0-.91-1.43 4 4 0 0 0-1.47-.92A6.12 6.12 0 0 0 11.3.05C10.45 0 10.17 0 8 0Zm0 3.89A4.11 4.11 0 1 0 12.11 8 4.11 4.11 0 0 0 8 3.89Zm0 6.78A2.67 2.67 0 1 1 10.67 8 2.67 2.67 0 0 1 8 10.67Zm4.27-7.9a1 1 0 1 0 1 1 1 1 0 0 0-1-1Z"/></symbol><symbol viewBox="0 0 11 16" id="i-play" xmlns="http://www.w3.org/2000/svg"><path d="m-.001-.01 11 8-11 8v-16Z"/></symbol><symbol viewBox="0 0 16 14.02" id="i-share" xmlns="http://www.w3.org/2000/svg"><path d="M11.46 9.32a1.54 1.54 0 0 0-.17.19L5.74 7.25a1.93 1.93 0 0 0 0-.24 1.69 1.69 0 0 0 0-.23l5.55-2.26.17.18a2.59 2.59 0 0 0 3.76 0 2.82 2.82 0 0 0 0-3.89 2.59 2.59 0 0 0-3.76 0 2.78 2.78 0 0 0-.78 2.1L5.13 5.17A2.84 2.84 0 0 0 2.87 4 2.92 2.92 0 0 0 0 7a2.93 2.93 0 0 0 2.87 3 2.84 2.84 0 0 0 2.26-1.14l5.55 2.26a2.81 2.81 0 0 0 .78 2.1 2.6 2.6 0 0 0 3.76 0 2.83 2.83 0 0 0 0-3.9 2.59 2.59 0 0 0-3.76 0Z"/></symbol><symbol viewBox="0 0 32 26" id="i-twitter" xmlns="http://www.w3.org/2000/svg"><path d="M32 3.07a13.39 13.39 0 0 1-3.26 3.41v.85a18.69 18.69 0 0 1-.74 5.26 18.63 18.63 0 0 1-2.33 5.06 19.46 19.46 0 0 1-3.76 4.28 17.07 17.07 0 0 1-5.24 3 19.14 19.14 0 0 1-6.6 1.07A18.22 18.22 0 0 1 0 23.33a10.23 10.23 0 0 0 1.56.11 12.83 12.83 0 0 0 8.14-3.11A6.28 6.28 0 0 1 5.91 19a6.42 6.42 0 0 1-2.32-3.24 7.47 7.47 0 0 0 1.22.11 7.3 7.3 0 0 0 1.75-.22 6.35 6.35 0 0 1-3.76-2.24 6.39 6.39 0 0 1-1.5-4.19v-.07a6.24 6.24 0 0 0 3 .81 6.21 6.21 0 0 1-2.97-5.44 6.39 6.39 0 0 1 .89-3.19 18.46 18.46 0 0 0 6 4.76 18.71 18.71 0 0 0 7.54 2 6.58 6.58 0 0 1-.15-1.51 6.33 6.33 0 0 1 1.89-4.65A6.27 6.27 0 0 1 22.15 0 6.45 6.45 0 0 1 27 2.07 13.21 13.21 0 0 0 31.11.48a6.22 6.22 0 0 1-2.89 3.63A13.35 13.35 0 0 0 32 3.07Z"/></symbol></svg>